<svg width="70" height="70" viewBox="0 0 70 70" fill="none" xmlns="http://www.w3.org/2000/svg">
<mask id="mask0_56_124" style="mask-type:alpha" maskUnits="userSpaceOnUse" x="0" y="46" width="47" height="24">
<rect x="46.55" y="69.8833" width="46.4333" height="23.1" rx="11.55" transform="rotate(-180 46.55 69.8833)" fill="#C4C4C4" stroke="black" stroke-width="0.233333"/>
</mask>
<g mask="url(#mask0_56_124)">
<rect width="23.3333" height="23.3333" transform="matrix(-4.37114e-08 1 1 4.37114e-08 23.3334 46.6667)" fill="url(#paint0_linear_56_124)"/>
</g>
<mask id="mask1_56_124" style="mask-type:alpha" maskUnits="userSpaceOnUse" x="0" y="0" width="36" height="70">
<path d="M0 11.6667C0 5.22341 5.22335 6.10352e-05 11.6667 6.10352e-05C18.11 6.10352e-05 23.3333 5.22341 23.3333 11.6667V57.5167V70.0001H11.6667C5.22335 70.0001 0 64.7767 0 58.3334V11.6667Z" fill="#C4C4C4"/>
<path d="M23.3333 70.0001H35.8167C31.6556 69.4945 23.3333 66.2901 23.3333 57.5167V70.0001Z" fill="#C4C4C4"/>
</mask>
<g mask="url(#mask1_56_124)">
<rect y="6.10352e-05" width="35.7" height="70" fill="url(#paint1_linear_56_124)"/>
</g>
<mask id="mask2_56_124" style="mask-type:alpha" maskUnits="userSpaceOnUse" x="23" y="0" width="47" height="24">
<rect x="23.45" y="0.116667" width="46.4333" height="23.1" rx="11.55" fill="#C4C4C4" stroke="black" stroke-width="0.233333"/>
</mask>
<g mask="url(#mask2_56_124)">
<rect width="23.3333" height="23.3333" transform="matrix(1.31134e-07 -1 -1 -1.31134e-07 46.6666 23.3333)" fill="url(#paint2_linear_56_124)"/>
</g>
<mask id="mask3_56_124" style="mask-type:alpha" maskUnits="userSpaceOnUse" x="34" y="0" width="36" height="70">
<path d="M70 58.3333C70 64.7767 64.7767 70 58.3333 70C51.89 70 46.6667 64.7767 46.6667 58.3333L46.6667 12.4833L46.6667 5.58953e-06L58.3333 6.60946e-06C64.7767 7.17276e-06 70 5.22335 70 11.6667L70 58.3333Z" fill="#C4C4C4"/>
<path d="M46.6667 5.58953e-06L34.1833 4.4982e-06C38.3445 0.505559 46.6667 3.71 46.6667 12.4833L46.6667 5.58953e-06Z" fill="#C4C4C4"/>
</mask>
<g mask="url(#mask3_56_124)">
<rect x="70" y="70" width="35.7" height="70" transform="rotate(-180 70 70)" fill="url(#paint3_linear_56_124)"/>
</g>
<defs>
<linearGradient id="paint0_linear_56_124" x1="-9.91667" y1="10.15" x2="20.0734" y2="25.1739" gradientUnits="userSpaceOnUse">
<stop stop-color="#2AF588"/>
<stop offset="1" stop-color="#334675"/>
</linearGradient>
<linearGradient id="paint1_linear_56_124" x1="2.3707" y1="3.31903" x2="37.7507" y2="63.8978" gradientUnits="userSpaceOnUse">
<stop stop-color="#2AF588"/>
<stop offset="1" stop-color="#405A9B"/>
</linearGradient>
<linearGradient id="paint2_linear_56_124" x1="-9.91667" y1="10.15" x2="20.0734" y2="25.1739" gradientUnits="userSpaceOnUse">
<stop stop-color="#2AF588"/>
<stop offset="1" stop-color="#334675"/>
</linearGradient>
<linearGradient id="paint3_linear_56_124" x1="72.3707" y1="73.319" x2="107.751" y2="133.898" gradientUnits="userSpaceOnUse">
<stop stop-color="#2AF588"/>
<stop offset="1" stop-color="#405A9B"/>
</linearGradient>
</defs>
</svg>
