<svg width="106" height="22" viewBox="0 0 106 22" fill="none" xmlns="http://www.w3.org/2000/svg">
<mask id="mask0_1882_6140" style="mask-type:alpha" maskUnits="userSpaceOnUse" x="0" y="13" width="9" height="5">
<rect x="8.02286" y="17.0121" width="8.00301" height="3.9814" rx="1.9907" transform="rotate(-180 8.02286 17.0121)" fill="#C4C4C4" stroke="black" stroke-width="0.0402161"/>
</mask>
<g mask="url(#mask0_1882_6140)">
<rect width="4.02161" height="4.02162" transform="matrix(-4.37114e-08 1 1 4.37114e-08 4.02344 13.0107)" fill="url(#paint0_linear_1882_6140)"/>
</g>
<mask id="mask1_1882_6140" style="mask-type:alpha" maskUnits="userSpaceOnUse" x="0" y="4" width="7" height="14">
<path d="M0 6.97858C0 5.86804 0.900269 4.96777 2.01081 4.96777C3.12135 4.96777 4.02162 5.86804 4.02162 6.97858V14.8811V17.0326H2.01081C0.900269 17.0326 0 16.1323 0 15.0218V6.97858Z" fill="#C4C4C4"/>
<path d="M4.02162 17.0326H6.17318C5.45599 16.9455 4.02162 16.3932 4.02162 14.8811V17.0326Z" fill="#C4C4C4"/>
</mask>
<g mask="url(#mask1_1882_6140)">
<rect y="4.96777" width="6.15307" height="12.0648" fill="url(#paint1_linear_1882_6140)"/>
</g>
<mask id="mask2_1882_6140" style="mask-type:alpha" maskUnits="userSpaceOnUse" x="4" y="4" width="9" height="5">
<rect x="4.04355" y="4.98788" width="8.00301" height="3.9814" rx="1.9907" fill="#C4C4C4" stroke="black" stroke-width="0.0402161"/>
</mask>
<g mask="url(#mask2_1882_6140)">
<rect width="4.02161" height="4.02162" transform="matrix(1.31134e-07 -1 -1 -1.31134e-07 8.04297 8.98926)" fill="url(#paint2_linear_1882_6140)"/>
</g>
<mask id="mask3_1882_6140" style="mask-type:alpha" maskUnits="userSpaceOnUse" x="5" y="4" width="8" height="14">
<path d="M12.0664 15.0214C12.0664 16.132 11.1661 17.0322 10.0556 17.0322C8.94506 17.0322 8.04479 16.132 8.04479 15.0214L8.04479 7.11895L8.04479 4.96738L10.0556 4.96738C11.1661 4.96738 12.0664 5.86765 12.0664 6.97819L12.0664 15.0214Z" fill="#C4C4C4"/>
<path d="M8.04479 4.96738L5.89323 4.96738C6.61042 5.05452 8.04479 5.60682 8.04479 7.11895L8.04479 4.96738Z" fill="#C4C4C4"/>
</mask>
<g mask="url(#mask3_1882_6140)">
<rect x="12.0664" y="17.0322" width="6.15307" height="12.0648" transform="rotate(-180 12.0664 17.0322)" fill="url(#paint3_linear_1882_6140)"/>
</g>
<path d="M19.4541 17H16.7796V5.05402H19.4541V17ZM26.5682 17H17.5285V14.593H26.5682V17ZM31.692 17.1783C30.6817 17.1783 29.7902 16.9881 29.0175 16.6077C28.2568 16.2274 27.6625 15.6925 27.2346 15.0031C26.8066 14.3018 26.5927 13.4816 26.5927 12.5425C26.5927 11.5916 26.8066 10.7714 27.2346 10.082C27.6625 9.38072 28.2568 8.83988 29.0175 8.45951C29.7902 8.07914 30.6817 7.88896 31.692 7.88896C32.7143 7.88896 33.6058 8.07914 34.3665 8.45951C35.1272 8.83988 35.7216 9.38072 36.1495 10.082C36.5774 10.7714 36.7913 11.5916 36.7913 12.5425C36.7913 13.4816 36.5774 14.3018 36.1495 15.0031C35.7216 15.6925 35.1272 16.2274 34.3665 16.6077C33.6058 16.9881 32.7143 17.1783 31.692 17.1783ZM31.692 14.8069C32.5954 14.8069 33.2254 14.6286 33.582 14.272C33.9505 13.9036 34.1347 13.3271 34.1347 12.5425C34.1347 11.7461 33.9505 11.1637 33.582 10.7952C33.2254 10.4267 32.5954 10.2425 31.692 10.2425C30.7886 10.2425 30.1527 10.4267 29.7842 10.7952C29.4276 11.1637 29.2493 11.7461 29.2493 12.5425C29.2493 13.3271 29.4276 13.9036 29.7842 14.272C30.1527 14.6286 30.7886 14.8069 31.692 14.8069ZM41.1642 17.1783C40.2371 17.1783 39.4526 16.9881 38.8107 16.6077C38.1688 16.2274 37.6815 15.6925 37.3487 15.0031C37.0158 14.3018 36.8494 13.4816 36.8494 12.5425C36.8494 11.5916 37.0099 10.7714 37.3308 10.082C37.6637 9.38072 38.1391 8.83988 38.7572 8.45951C39.3872 8.07914 40.142 7.88896 41.0216 7.88896C42.0795 7.88896 42.8937 8.12669 43.4643 8.60215C44.0349 9.07762 44.3914 9.68977 44.5341 10.4386H45.0333V12.4534H44.6946C44.6946 11.6808 44.4687 11.134 44.017 10.8131C43.5772 10.4921 42.9294 10.3316 42.0736 10.3316C41.503 10.3316 41.0276 10.403 40.6472 10.5456C40.2787 10.6882 40.0053 10.92 39.827 11.241C39.6487 11.55 39.5596 11.9839 39.5596 12.5425C39.5596 13.0774 39.6487 13.5054 39.827 13.8263C40.0053 14.1472 40.2787 14.379 40.6472 14.5217C41.0276 14.6643 41.503 14.7356 42.0736 14.7356C42.6441 14.7356 43.1196 14.6643 43.5 14.5217C43.8922 14.379 44.1894 14.1532 44.3914 13.8441C44.5935 13.5232 44.6946 13.1072 44.6946 12.596H45.0333L45.2116 14.5217H44.7302C44.5638 15.4013 44.1834 16.0669 43.5891 16.5186C42.9948 16.9584 42.1865 17.1783 41.1642 17.1783ZM47.369 17H44.8729V14.3612L44.6946 14.1294V5.05402H47.369V17ZM52.8137 17.1783C51.8271 17.1783 50.9534 17.0119 50.1927 16.6791C49.4319 16.3462 48.8436 15.8351 48.4275 15.1457C48.0115 14.4563 47.8035 13.5886 47.8035 12.5425C47.8035 11.5916 48.0115 10.7714 48.4275 10.082C48.8436 9.38072 49.4201 8.83988 50.157 8.45951C50.9059 8.07914 51.7736 7.88896 52.7602 7.88896C53.7349 7.88896 54.5848 8.05537 55.3098 8.3882C56.0468 8.72102 56.6174 9.21431 57.0215 9.86807C57.4257 10.5099 57.6277 11.2945 57.6277 12.2216C57.6277 12.3761 57.6218 12.5188 57.6099 12.6495C57.598 12.7803 57.5802 12.9229 57.5564 13.0774H49.533V11.6689H55.6664L55.0602 12.5425C55.0602 12.4237 55.0602 12.3108 55.0602 12.2038C55.0602 12.0968 55.0602 11.9898 55.0602 11.8828C55.0602 11.2053 54.876 10.718 54.5075 10.4208C54.139 10.1236 53.5387 9.97505 52.7067 9.97505C51.8033 9.97505 51.1733 10.1533 50.8167 10.5099C50.4601 10.8547 50.2818 11.4074 50.2818 12.1681V12.8457C50.2818 13.6064 50.4601 14.1651 50.8167 14.5217C51.1733 14.8664 51.8093 15.0387 52.7245 15.0387C53.509 15.0387 54.0618 14.9377 54.3827 14.7356C54.7036 14.5335 54.8641 14.2423 54.8641 13.862V13.6837H57.5386V13.8798C57.5386 14.5217 57.3424 15.0922 56.9502 15.5914C56.5579 16.0907 56.0052 16.4829 55.292 16.7682C54.5907 17.0416 53.7646 17.1783 52.8137 17.1783ZM62.5596 17.1783C61.0619 17.1783 59.9089 16.899 59.1006 16.3403C58.2923 15.7697 57.8882 14.9674 57.8882 13.9333V13.8798H60.5627V14.0402C60.5627 14.4444 60.7053 14.7178 60.9906 14.8604C61.2878 14.9912 61.8167 15.0565 62.5774 15.0565C63.2906 15.0565 63.7602 14.9971 63.986 14.8783C64.2237 14.7475 64.3426 14.5514 64.3426 14.2899C64.3426 14.0402 64.2535 13.8679 64.0752 13.7728C63.8969 13.6658 63.5462 13.5767 63.0232 13.5054L60.5092 13.2022C59.6177 13.1072 58.9283 12.8575 58.4409 12.4534C57.9655 12.0493 57.7277 11.4668 57.7277 10.7061C57.7277 10.1831 57.8823 9.71355 58.1913 9.29752C58.5004 8.8696 58.9758 8.53083 59.6177 8.28122C60.2715 8.01971 61.1095 7.88896 62.1317 7.88896C63.1064 7.88896 63.9325 8.01377 64.61 8.26339C65.2995 8.50112 65.8225 8.86366 66.1791 9.35101C66.5357 9.83835 66.714 10.4446 66.714 11.1696V11.2231H64.0395V11.1162C64.0395 10.8665 63.986 10.6645 63.879 10.5099C63.7839 10.3435 63.5878 10.2187 63.2906 10.1355C63.0054 10.0523 62.5893 10.0107 62.0426 10.0107C61.3769 10.0107 60.9312 10.0761 60.7053 10.2068C60.4795 10.3257 60.3665 10.5278 60.3665 10.8131C60.3665 11.0389 60.4557 11.2113 60.634 11.3301C60.8242 11.4371 61.2105 11.5322 61.7929 11.6154L63.7007 11.8472C64.8894 11.9779 65.7333 12.2513 66.2326 12.6674C66.7318 13.0834 66.9814 13.6599 66.9814 14.3968C66.9814 14.9555 66.8031 15.4429 66.4465 15.8589C66.0899 16.2749 65.5847 16.6018 64.931 16.8395C64.2772 17.0654 63.4868 17.1783 62.5596 17.1783ZM73.6413 17H71.4304C70.3844 17 69.5642 16.7444 68.9699 16.2333C68.3755 15.7222 68.0784 14.902 68.0784 13.7728V6.33777H70.7528V13.4697C70.7528 13.9214 70.8479 14.2245 71.0381 14.379C71.2402 14.5217 71.573 14.593 72.0366 14.593H73.6413V17ZM73.6413 10.2782H66.6698V8.06726H73.6413V10.2782ZM78.6903 17.1783C77.68 17.1783 76.7885 16.9881 76.0158 16.6077C75.2551 16.2274 74.6608 15.6925 74.2329 15.0031C73.8049 14.3018 73.591 13.4816 73.591 12.5425C73.591 11.5916 73.8049 10.7714 74.2329 10.082C74.6608 9.38072 75.2551 8.83988 76.0158 8.45951C76.7885 8.07914 77.68 7.88896 78.6903 7.88896C79.7126 7.88896 80.6041 8.07914 81.3648 8.45951C82.1255 8.83988 82.7199 9.38072 83.1478 10.082C83.5757 10.7714 83.7896 11.5916 83.7896 12.5425C83.7896 13.4816 83.5757 14.3018 83.1478 15.0031C82.7199 15.6925 82.1255 16.2274 81.3648 16.6077C80.6041 16.9881 79.7126 17.1783 78.6903 17.1783ZM78.6903 14.8069C79.5937 14.8069 80.2237 14.6286 80.5803 14.272C80.9488 13.9036 81.133 13.3271 81.133 12.5425C81.133 11.7461 80.9488 11.1637 80.5803 10.7952C80.2237 10.4267 79.5937 10.2425 78.6903 10.2425C77.7869 10.2425 77.151 10.4267 76.7825 10.7952C76.4259 11.1637 76.2476 11.7461 76.2476 12.5425C76.2476 13.3271 76.4259 13.9036 76.7825 14.272C77.151 14.6286 77.7869 14.8069 78.6903 14.8069ZM94.0464 17H91.3719V12.3286C91.3719 11.6035 91.2055 11.0864 90.8727 10.7774C90.5399 10.4565 89.9634 10.296 89.1432 10.296C88.2874 10.296 87.6871 10.4743 87.3424 10.8309C87.0096 11.1756 86.8431 11.7283 86.8431 12.4891H86.5044L86.3082 10.8131H86.8075C86.8907 10.3138 87.069 9.8443 87.3424 9.4045C87.6158 8.95281 88.0021 8.59027 88.5013 8.31688C89.0124 8.0316 89.6603 7.88896 90.4448 7.88896C91.2531 7.88896 91.9246 8.04943 92.4595 8.37037C92.9944 8.67942 93.3926 9.10139 93.6541 9.63628C93.9156 10.1712 94.0464 10.7714 94.0464 11.4371V17ZM86.8431 17H84.1687V8.06726H86.647V10.8487L86.8431 10.9379V17ZM99.4289 17.1783C98.4423 17.1783 97.5687 17.0119 96.8079 16.6791C96.0472 16.3462 95.4588 15.8351 95.0428 15.1457C94.6267 14.4563 94.4187 13.5886 94.4187 12.5425C94.4187 11.5916 94.6267 10.7714 95.0428 10.082C95.4588 9.38072 96.0353 8.83988 96.7723 8.45951C97.5211 8.07914 98.3888 7.88896 99.3754 7.88896C100.35 7.88896 101.2 8.05537 101.925 8.3882C102.662 8.72102 103.233 9.21431 103.637 9.86807C104.041 10.5099 104.243 11.2945 104.243 12.2216C104.243 12.3761 104.237 12.5188 104.225 12.6495C104.213 12.7803 104.195 12.9229 104.172 13.0774H96.1482V11.6689H102.282L101.675 12.5425C101.675 12.4237 101.675 12.3108 101.675 12.2038C101.675 12.0968 101.675 11.9898 101.675 11.8828C101.675 11.2053 101.491 10.718 101.123 10.4208C100.754 10.1236 100.154 9.97505 99.3219 9.97505C98.4185 9.97505 97.7886 10.1533 97.432 10.5099C97.0754 10.8547 96.8971 11.4074 96.8971 12.1681V12.8457C96.8971 13.6064 97.0754 14.1651 97.432 14.5217C97.7886 14.8664 98.4245 15.0387 99.3398 15.0387C100.124 15.0387 100.677 14.9377 100.998 14.7356C101.319 14.5335 101.479 14.2423 101.479 13.862V13.6837H104.154V13.8798C104.154 14.5217 103.958 15.0922 103.565 15.5914C103.173 16.0907 102.62 16.4829 101.907 16.7682C101.206 17.0416 100.38 17.1783 99.4289 17.1783Z" fill="#E3E3E4"/>
<defs>
<linearGradient id="paint0_linear_1882_6140" x1="-1.70919" y1="1.7494" x2="3.45976" y2="4.33885" gradientUnits="userSpaceOnUse">
<stop stop-color="#2AF588"/>
<stop offset="1" stop-color="#334675"/>
</linearGradient>
<linearGradient id="paint1_linear_1882_6140" x1="0.408602" y1="5.53981" x2="6.50652" y2="15.9809" gradientUnits="userSpaceOnUse">
<stop stop-color="#2AF588"/>
<stop offset="1" stop-color="#405A9B"/>
</linearGradient>
<linearGradient id="paint2_linear_1882_6140" x1="-1.70919" y1="1.7494" x2="3.45976" y2="4.33885" gradientUnits="userSpaceOnUse">
<stop stop-color="#2AF588"/>
<stop offset="1" stop-color="#334675"/>
</linearGradient>
<linearGradient id="paint3_linear_1882_6140" x1="12.475" y1="17.6043" x2="18.5729" y2="28.0453" gradientUnits="userSpaceOnUse">
<stop stop-color="#2AF588"/>
<stop offset="1" stop-color="#405A9B"/>
</linearGradient>
</defs>
</svg>
