<svg width="1916" height="1080" viewBox="0 0 1916 1080" fill="none" xmlns="http://www.w3.org/2000/svg">
    <defs>
        <filter id="filter0_b_2175_13114" x="-160" y="-222" width="2236" height="1505" filterUnits="userSpaceOnUse"
            color-interpolation-filters="sRGB">
            <!-- <feFlood flood-opacity="0" result="BackgroundImageFix" /> -->
            <feGaussianBlur in="SourceGraphic" stdDeviation="80" />
            <!-- <feComposite in2="SourceAlpha" operator="in" result="effect1_backgroundBlur_2175_13114" /> -->
            <!-- <feBlend mode="normal" in="SourceGraphic" in2="effect1_backgroundBlur_2175_13114" result="shape" /> -->
        </filter>
        <linearGradient id="paint0_linear_2175_13114" x1="266" y1="568.5" x2="553.5" y2="18"
            gradientUnits="userSpaceOnUse">
            <stop stop-color="#2AF588" />
            <stop offset="1" stop-color="#273EB9" />
        </linearGradient>
        <linearGradient id="paint1_linear_2175_13114" x1="-7749.96" y1="-9776.27" x2="-6829.09" y2="-10503.5"
            gradientUnits="userSpaceOnUse">
            <stop stop-color="#2AF588" />
            <stop offset="1" stop-color="#334675" />
        </linearGradient>
    </defs>
    <g filter="url(#filter0_b_2175_13114)">
        <rect width="1916" height="1080" fill="#000" fill-opacity="1" />
        <rect width="1916" height="1080" fill="#26282C" fill-opacity="0.01" />
        <circle cx="210.073" cy="863.073" r="237.073" fill="#334675" />
        <circle cx="1295.07" cy="100.073" r="237.073" fill="#273EB9" />
        <ellipse cx="547.5" cy="906.5" rx="143.5" ry="135.5" fill="#273EB9" />
        <circle cx="925" cy="139" r="191" fill="#8736C7" />
        <circle cx="1582" cy="228" r="136" fill="#8736C7" />
        <path
            d="M817.487 -241.316C790.06 -171.556 783.655 -95.89 799.308 -26.5775C814.961 42.7351 851.755 101.634 903.731 140.576L1083.31 -136.806L817.487 -241.316Z"
            fill="#334675" />
        <path opacity="0.7"
            d="M835.646 204.777C1105.48 590.785 793.548 813.146 509.6 813.146C225.652 813.146 -130 646.519 -130 354.683C-130 62.8478 -54.1731 -184.979 229.775 -184.979C513.723 -184.979 601.619 -130.014 835.646 204.777Z"
            fill="url(#paint0_linear_2175_13114)" />
        <path
            d="M934.012 1053.18C483.018 917.479 590.004 549.65 812.842 373.669C1035.68 197.687 1487.63 27.6284 1668.49 256.657C1849.36 485.685 1891.33 877.2 1668.5 1053.18C1445.66 1229.16 1325.17 1170.88 934.012 1053.18Z"
            fill="url(#paint1_linear_2175_13114)" />
        <circle opacity="0.4" cx="91.0726" cy="566.073" r="237.073" fill="#334675" />
        <path
            d="M595 1030.5C857.958 1144.09 330.522 1340.66 45.5 1285.05C-5.58634 1285.05 -191.5 1108.14 -191.5 1057.05C-191.5 1005.96 -51.0863 965 0 965C51.0863 965 462.5 973.261 595 1030.5Z"
            fill="#8736C7" />
    </g>
</svg>
