<svg width="151" height="38" viewBox="0 0 151 38" fill="none" xmlns="http://www.w3.org/2000/svg">
<mask id="mask0_355_139" style="mask-type:alpha" maskUnits="userSpaceOnUse" x="0" y="21" width="13" height="7">
<rect x="11.995" y="27.2839" width="11.9649" height="5.95239" rx="2.97619" transform="rotate(-180 11.995 27.2839)" fill="#C4C4C4" stroke="black" stroke-width="0.0601251"/>
</mask>
<g mask="url(#mask0_355_139)">
<rect width="6.01251" height="6.01251" transform="matrix(-4.37114e-08 1 1 4.37114e-08 6.01251 21.3015)" fill="url(#paint0_linear_355_139)"/>
</g>
<mask id="mask1_355_139" style="mask-type:alpha" maskUnits="userSpaceOnUse" x="0" y="9" width="10" height="19">
<path d="M0 12.2827C0 10.6224 1.34595 9.27649 3.00626 9.27649V9.27649C4.66657 9.27649 6.01251 10.6224 6.01251 12.2827V24.0973V27.314H3.00626V27.314C1.34595 27.314 0 25.9681 0 24.3078V12.2827Z" fill="#C4C4C4"/>
<path d="M6.01251 27.314H9.22921C8.15698 27.1838 6.01251 26.358 6.01251 24.0973V27.314Z" fill="#C4C4C4"/>
</mask>
<g mask="url(#mask1_355_139)">
<rect y="9.27649" width="9.19914" height="18.0375" fill="url(#paint1_linear_355_139)"/>
</g>
<mask id="mask2_355_139" style="mask-type:alpha" maskUnits="userSpaceOnUse" x="6" y="9" width="13" height="7">
<rect x="6.04257" y="9.30655" width="11.9649" height="5.95239" rx="2.97619" fill="#C4C4C4" stroke="black" stroke-width="0.0601251"/>
</mask>
<g mask="url(#mask2_355_139)">
<rect width="6.01251" height="6.01251" transform="matrix(1.31134e-07 -1 -1 -1.31134e-07 12.025 15.2889)" fill="url(#paint2_linear_355_139)"/>
</g>
<mask id="mask3_355_139" style="mask-type:alpha" maskUnits="userSpaceOnUse" x="8" y="9" width="11" height="19">
<path d="M18.0375 24.3077C18.0375 25.968 16.6916 27.314 15.0313 27.314V27.314C13.371 27.314 12.025 25.968 12.025 24.3077L12.025 12.4931L12.025 9.27642L15.0313 9.27642V9.27642C16.6916 9.27642 18.0375 10.6224 18.0375 12.2827L18.0375 24.3077Z" fill="#C4C4C4"/>
<path d="M12.025 9.27642L8.80833 9.27642C9.88056 9.40669 12.025 10.2324 12.025 12.4931L12.025 9.27642Z" fill="#C4C4C4"/>
</mask>
<g mask="url(#mask3_355_139)">
<rect x="18.0375" y="27.314" width="9.19914" height="18.0375" transform="rotate(-180 18.0375 27.314)" fill="url(#paint3_linear_355_139)"/>
</g>
<path d="M27.6783 9.0602H23.7865V23.6679C23.7865 25.7205 24.7461 27 27.2252 27H36.0484V23.4014H27.6783V9.0602ZM43.7047 27.3465C47.7565 27.3465 50.8753 24.2011 50.8753 20.3625C50.8753 16.5773 47.7831 13.4052 43.7047 13.4052C39.6796 13.4052 36.5608 16.5507 36.5608 20.3625C36.5608 24.2011 39.6529 27.3465 43.7047 27.3465ZM43.7047 23.8012C41.7588 23.8012 40.346 22.2551 40.346 20.3892C40.346 18.5232 41.7588 16.9772 43.7047 16.9772C45.6506 16.9772 47.0901 18.5232 47.0901 20.3892C47.0901 22.2551 45.6506 23.8012 43.7047 23.8012ZM58.8041 27.3732C62.9359 27.3732 65.9747 24.4143 65.9747 20.4159V7.72737H62.1895L62.1628 14.6847C61.2032 13.9117 59.9237 13.4319 58.5909 13.4319C54.4858 13.4319 51.6602 16.3108 51.6602 20.4159C51.6602 24.2277 54.7523 27.3732 58.8041 27.3732ZM58.8041 23.8012C56.8582 23.8012 55.4454 22.2818 55.4454 20.4159C55.4454 18.5499 56.8582 17.0038 58.8041 17.0038C60.75 17.0038 62.1895 18.5499 62.1895 20.4159C62.1895 22.2818 60.75 23.8012 58.8041 23.8012ZM74.6077 27.3465C77.4066 27.3465 79.5924 25.9871 80.7386 23.6146L77.8331 22.1485C77.22 23.3747 76.0204 24.0678 74.581 24.0678C72.6884 24.0678 71.3289 22.8949 71.0623 21.1356H80.8719V20.016C80.8719 16.4174 78.4462 13.3252 74.2611 13.3252C70.1827 13.3252 67.4104 16.4707 67.4104 20.2826C67.4104 24.4943 70.5026 27.3465 74.6077 27.3465ZM71.2223 19.0297C71.4888 17.6969 72.5818 16.6306 74.2345 16.6306C75.8338 16.6306 76.9534 17.6702 77.1134 19.0297H71.2223ZM87.7489 27.3732C90.761 27.3732 93.3467 25.6672 93.3467 23.0015C93.3467 18.0434 86.0962 19.7494 86.0962 17.6169C86.0962 16.9239 86.7892 16.4707 87.7222 16.4707C88.7885 16.4707 89.7481 16.9239 90.1746 17.8835L92.9735 16.3108C92.1738 14.7913 90.4678 13.4585 87.6422 13.4585C84.3902 13.4585 82.3109 15.3245 82.3109 17.6969C82.3109 22.7883 89.5615 20.949 89.5615 23.0815C89.5615 23.8545 88.7885 24.3344 87.5623 24.3344C86.2295 24.3344 85.3498 23.8812 84.79 22.8149L81.9911 24.3877C83.084 26.3602 85.0033 27.3732 87.7489 27.3732ZM101.689 27.3732C102.622 27.3732 103.768 27.1599 104.435 26.7334V23.3481C103.795 23.7479 102.809 23.9878 102.035 23.9878C100.649 23.9878 99.7697 23.1348 99.7697 21.6687V17.0038H104.435V13.805H99.7697V10.4463H95.9845V13.805H93.5587V17.0038H95.9845V21.7753C95.9845 25.0807 97.8771 27.3732 101.689 27.3732ZM112.434 27.3465C116.485 27.3465 119.604 24.2011 119.604 20.3625C119.604 16.5773 116.512 13.4052 112.434 13.4052C108.408 13.4052 105.29 16.5507 105.29 20.3625C105.29 24.2011 108.382 27.3465 112.434 27.3465ZM112.434 23.8012C110.488 23.8012 109.075 22.2551 109.075 20.3892C109.075 18.5232 110.488 16.9772 112.434 16.9772C114.38 16.9772 115.819 18.5232 115.819 20.3892C115.819 22.2551 114.38 23.8012 112.434 23.8012ZM127.933 17.1105C130.092 17.1105 131.078 18.8431 131.078 20.869V27H134.864V20.4159C134.864 16.5507 132.544 13.4319 127.933 13.4319C123.321 13.4319 121.055 16.5773 121.055 20.4159V27H124.841V20.869C124.841 18.8431 125.8 17.1105 127.933 17.1105ZM143.493 27.3465C146.292 27.3465 148.478 25.9871 149.624 23.6146L146.718 22.1485C146.105 23.3747 144.906 24.0678 143.466 24.0678C141.573 24.0678 140.214 22.8949 139.947 21.1356H149.757V20.016C149.757 16.4174 147.331 13.3252 143.146 13.3252C139.068 13.3252 136.296 16.4707 136.296 20.2826C136.296 24.4943 139.388 27.3465 143.493 27.3465ZM140.107 19.0297C140.374 17.6969 141.467 16.6306 143.12 16.6306C144.719 16.6306 145.839 17.6702 145.998 19.0297H140.107Z" fill="#E3E3E4"/>
<defs>
<linearGradient id="paint0_linear_355_139" x1="-2.55532" y1="2.61544" x2="5.17251" y2="6.4868" gradientUnits="userSpaceOnUse">
<stop stop-color="#2AF588"/>
<stop offset="1" stop-color="#334675"/>
</linearGradient>
<linearGradient id="paint1_linear_355_139" x1="0.61088" y1="10.1317" x2="9.72758" y2="25.7416" gradientUnits="userSpaceOnUse">
<stop stop-color="#2AF588"/>
<stop offset="1" stop-color="#405A9B"/>
</linearGradient>
<linearGradient id="paint2_linear_355_139" x1="-2.55532" y1="2.61544" x2="5.17251" y2="6.4868" gradientUnits="userSpaceOnUse">
<stop stop-color="#2AF588"/>
<stop offset="1" stop-color="#334675"/>
</linearGradient>
<linearGradient id="paint3_linear_355_139" x1="18.6484" y1="28.1692" x2="27.7651" y2="43.7791" gradientUnits="userSpaceOnUse">
<stop stop-color="#2AF588"/>
<stop offset="1" stop-color="#405A9B"/>
</linearGradient>
</defs>
</svg>
