<svg width="20" height="22" viewBox="0 0 20 22" fill="none" xmlns="http://www.w3.org/2000/svg">
<path fill-rule="evenodd" clip-rule="evenodd" d="M9.6221 0.602166C9.85562 0.465945 10.1444 0.465945 10.3779 0.602166L12.6279 1.91467C12.9857 2.12338 13.1065 2.58261 12.8978 2.9404C12.6891 3.29819 12.2299 3.41904 11.8721 3.21033L10 2.11828L8.1279 3.21033C7.77011 3.41904 7.31088 3.29819 7.10217 2.9404C6.89346 2.58261 7.01431 2.12338 7.3721 1.91467L9.6221 0.602166ZM3.89783 4.8096C4.10654 5.16739 3.98569 5.62662 3.6279 5.83533L2.48848 6.5L3.6279 7.16467C3.98569 7.37338 4.10654 7.83261 3.89783 8.1904C3.68912 8.54819 3.22989 8.66904 2.8721 8.46033L1.75 7.80578V8.75C1.75 9.16421 1.41421 9.5 1 9.5C0.585786 9.5 0.25 9.16421 0.25 8.75V6.5C0.25 6.23325 0.391683 5.98657 0.622097 5.85217L2.8721 4.53967C3.22989 4.33096 3.68912 4.45181 3.89783 4.8096ZM16.1022 4.8096C16.3109 4.45181 16.7701 4.33096 17.1279 4.53967L19.3779 5.85217C19.6083 5.98657 19.75 6.23325 19.75 6.5V8.75C19.75 9.16421 19.4142 9.5 19 9.5C18.5858 9.5 18.25 9.16421 18.25 8.75V7.80578L17.1279 8.46033C16.7701 8.66904 16.3109 8.54819 16.1022 8.1904C15.8935 7.83261 16.0143 7.37338 16.3721 7.16467L17.5115 6.5L16.3721 5.83533C16.0143 5.62662 15.8935 5.16739 16.1022 4.8096ZM7.10217 10.0596C7.31088 9.70181 7.77011 9.58096 8.1279 9.78967L10 10.8817L11.8721 9.78967C12.2299 9.58096 12.6891 9.70181 12.8978 10.0596C13.1065 10.4174 12.9857 10.8766 12.6279 11.0853L10.75 12.1808V14C10.75 14.4142 10.4142 14.75 10 14.75C9.58579 14.75 9.25 14.4142 9.25 14V12.1808L7.3721 11.0853C7.01431 10.8766 6.89346 10.4174 7.10217 10.0596ZM1 12.5C1.41421 12.5 1.75 12.8358 1.75 13.25V15.0692L3.6279 16.1647C3.98569 16.3734 4.10654 16.8326 3.89783 17.1904C3.68912 17.5482 3.22989 17.669 2.8721 17.4603L0.622097 16.1478C0.391683 16.0134 0.25 15.7668 0.25 15.5V13.25C0.25 12.8358 0.585786 12.5 1 12.5ZM19 12.5C19.4142 12.5 19.75 12.8358 19.75 13.25V15.5C19.75 15.7668 19.6083 16.0134 19.3779 16.1478L17.1279 17.4603C16.7701 17.669 16.3109 17.5482 16.1022 17.1904C15.8935 16.8326 16.0143 16.3734 16.3721 16.1647L18.25 15.0692V13.25C18.25 12.8358 18.5858 12.5 19 12.5ZM10 17.75C10.4142 17.75 10.75 18.0858 10.75 18.5V19.4442L11.8721 18.7897C12.2299 18.581 12.6891 18.7018 12.8978 19.0596C13.1065 19.4174 12.9857 19.8766 12.6279 20.0853L10.3779 21.3978C10.1444 21.5341 9.85562 21.5341 9.6221 21.3978L7.3721 20.0853C7.01431 19.8766 6.89346 19.4174 7.10217 19.0596C7.31088 18.7018 7.77011 18.581 8.1279 18.7897L9.25 19.4442V18.5C9.25 18.0858 9.58579 17.75 10 17.75Z" fill="#2AF588"/>
</svg>
