<svg width="33" height="33" viewBox="0 0 33 33" fill="none" xmlns="http://www.w3.org/2000/svg">
  <path d="M26.2858 16.5C26.2858 17.2947 25.6461 17.938 24.8572 17.938H18.4286V24.4067C18.4286 25.2014 17.7889 25.8438 17.0001 25.8438C16.2112 25.8438 15.5715 25.2014 15.5715 24.4067V17.938H9.14293C8.35409 17.938 7.71436 17.2947 7.71436 16.5C7.71436 15.7053 8.35409 15.0629 9.14293 15.0629H15.5715V8.5942C15.5715 7.79953 16.2112 7.15625 17.0001 7.15625C17.7889 7.15625 18.4286 7.79953 18.4286 8.5942V15.0629H24.8572C25.6474 15.0625 26.2858 15.7049 26.2858 16.5Z" fill="#C9C9C9" />
  <circle cx="16.5" cy="16.5" r="15" stroke="#ACACAC" stroke-width="3" />
</svg>
  